# Blender 4.5.3 LTS
# www.blender.org
mtllib nave.mtl
o Cube
v 1.120592 0.971180 1.098997
v 1.121696 -0.674596 1.218102
v -1.013820 0.579661 1.115374
v -1.013820 -0.292721 1.115374
v -1.000000 0.127618 0.000000
v 1.000000 1.000000 0.000000
v -1.000000 1.000000 0.000000
v 1.000000 -1.000000 0.000000
v -3.558690 0.402522 1.439072
v -3.227518 -0.049290 2.397639
v -3.227518 -0.049290 1.397639
v -3.558690 0.402522 0.439072
v 3.582854 0.603040 0.961075
v 3.406792 -0.971110 1.115682
v 3.498869 1.000000 0.000000
v 3.498869 -1.000000 0.000000
v 1.872382 0.442111 5.140700
v 1.799186 -0.175529 4.563618
v 2.606279 0.076470 4.649670
v 4.071259 -0.162983 4.561060
v 6.364438 0.536771 0.828537
v 6.274836 0.169759 0.636459
v 6.280453 0.933731 0.047225
v 6.296576 0.169241 0.397859
v 3.498869 1.000000 0.000000
v 3.499661 0.605540 1.063143
v 6.283198 0.596627 0.398496
v 6.350203 0.383953 0.606197
v 6.364438 0.536771 0.828537
v 6.280453 -0.056475 0.867462
v 6.280453 0.933731 0.172335
v 6.280453 -0.056475 0.172335
v 1.000000 1.000000 1.000000
v 3.582854 0.603040 0.961075
v 1.789189 0.444610 5.242768
v -0.707574 0.047651 5.203843
v 0.986180 0.579661 1.115374
v 3.582854 0.603040 0.961075
v 1.789189 0.444610 5.242768
v 2.726871 0.047651 4.748667
v 3.498869 -1.000000 1.000000
v 0.986180 -0.687732 1.115374
v 4.206314 -0.147992 4.672758
v 1.707444 -0.147992 4.672758
v 3.471379 -0.991375 1.034537
v 1.026639 -0.683810 1.146044
v 4.165993 -0.152467 4.639410
v 1.734834 -0.156213 4.640174
v 1.120592 0.971180 -1.098997
v 1.121696 -0.674596 -1.218102
v -1.013820 0.579661 -1.115374
v -1.013820 -0.292721 -1.115374
v -3.558690 0.402522 -1.439072
v -3.227518 -0.049290 -2.397639
v -3.227518 -0.049290 -1.397639
v -3.558690 0.402522 -0.439072
v 3.582854 0.603040 -0.961075
v 3.406792 -0.971110 -1.115682
v 1.872382 0.442111 -5.140700
v 1.799186 -0.175529 -4.563618
v 2.606279 0.076470 -4.649670
v 4.071259 -0.162983 -4.561060
v 6.364438 0.536771 -0.828537
v 6.274836 0.169759 -0.636459
v 6.280453 0.933731 -0.047225
v 6.296576 0.169241 -0.397859
v 3.499661 0.605540 -1.063143
v 6.283198 0.596627 -0.398496
v 6.350203 0.383953 -0.606197
v 6.364438 0.536771 -0.828537
v 6.280453 -0.056475 -0.867462
v 6.280453 0.933731 -0.172335
v 6.280453 -0.056475 -0.172335
v 1.000000 1.000000 -1.000000
v 3.582854 0.603040 -0.961075
v 1.789189 0.444610 -5.242768
v -0.707574 0.047651 -5.203843
v 0.986180 0.579661 -1.115374
v 3.582854 0.603040 -0.961075
v 1.789189 0.444610 -5.242768
v 2.726871 0.047651 -4.748667
v 3.498869 -1.000000 -1.000000
v 0.986180 -0.687732 -1.115374
v 4.206314 -0.147992 -4.672758
v 1.707444 -0.147992 -4.672758
v 3.471379 -0.991375 -1.034537
v 1.026639 -0.683810 -1.146044
v 4.165993 -0.152467 -4.639410
v 1.734834 -0.156213 -4.640174
vn -0.0000 1.0000 -0.0000
vn -0.0000 -0.0000 1.0000
vn -0.4658 -0.8261 -0.3171
vn -0.1068 -0.9578 0.2668
vn -0.0694 0.9976 -0.0000
vn -0.8065 -0.5912 -0.0000
vn -0.1464 -0.9251 -0.3504
vn 0.5012 -0.0000 0.8653
vn -0.1302 0.2985 -0.9455
vn 0.0156 0.9246 0.3805
vn -0.0000 -0.0000 -1.0000
vn 0.0141 0.9734 -0.2285
vn -0.0706 0.5269 -0.8470
vn 0.1521 0.9716 0.1812
vn -0.9833 -0.0358 0.1782
vn -0.1193 -0.9782 0.1701
vn 0.9435 -0.3197 0.0867
vn 0.3212 -0.9470 -0.0000
vn 0.0489 0.0585 0.9971
vn 0.0618 -0.0000 -0.9981
vn -0.9783 -0.2070 -0.0000
vn 0.9742 -0.1490 -0.1697
vn 0.9754 0.1474 -0.1638
vn 0.9830 -0.1601 0.0899
vn 0.9999 -0.0000 -0.0121
vn 0.0549 0.2626 0.9633
vn 0.0965 -0.6785 0.7283
vn -0.0591 -0.0215 -0.9980
vn 0.3521 0.9221 -0.1604
vn 0.2733 0.9409 0.1998
vn 0.0566 0.9982 0.0217
vn -0.1165 -0.9814 0.1524
vn 0.0016 -0.9693 0.2459
vn -0.0929 -0.9658 0.2420
vn -0.0211 -0.9878 0.1542
vn -0.1207 -0.9814 0.1491
vn 0.0056 -0.9685 0.2491
vn -0.0936 -0.9656 0.2427
vn -0.0205 -0.9880 0.1533
vn 0.0430 0.0678 -0.9968
vn -0.4658 -0.8261 0.3171
vn -0.1068 -0.9578 -0.2668
vn -0.1565 0.9249 -0.3466
vn -0.1464 -0.9251 0.3504
vn 0.5012 -0.0000 -0.8653
vn -0.1302 0.2985 0.9455
vn 0.0156 0.9246 -0.3805
vn 0.7043 -0.0197 -0.7096
vn -0.0000 -0.6932 -0.7207
vn 0.1521 0.9716 -0.1812
vn -0.9805 0.0214 -0.1955
vn -0.1193 -0.9782 -0.1701
vn 0.9600 0.0305 0.2785
vn 0.0401 0.0222 -0.9990
vn 0.0618 -0.0000 0.9981
vn -0.0238 -0.9997 -0.0000
vn 0.9389 -0.3089 -0.1522
vn 0.9754 0.1474 0.1638
vn 0.9830 -0.1601 -0.0899
vn 0.9943 0.0313 0.1024
vn -0.0198 -0.9886 0.1494
vn 0.9775 -0.0851 0.1930
vn 0.1526 0.9832 -0.1003
vn 0.3521 0.9221 0.1604
vn 0.0960 0.9810 -0.1686
vn -0.9211 0.3252 -0.2139
vn -0.1165 -0.9814 -0.1524
vn 0.0016 -0.9693 -0.2459
vn -0.0168 -0.9731 -0.2297
vn -0.0953 -0.9813 -0.1675
vn -0.1207 -0.9814 -0.1491
vn 0.0056 -0.9685 -0.2491
vn -0.0149 -0.9728 -0.2311
vn -0.0970 -0.9813 -0.1660
vn -0.1727 0.9224 0.3455
vn 0.0430 0.0678 0.9968
vn -0.1870 -0.9466 0.2627
vn -0.0000 -1.0000 -0.0000
vn -0.1565 0.9249 0.3466
vn -0.1093 -0.9940 -0.0000
vn -0.0084 0.9034 0.4287
vn -0.1623 -0.9130 -0.3743
vn -0.0000 -0.5922 -0.8058
vn 0.0427 0.8926 0.4489
vn 0.1467 0.9187 0.3666
vn 0.7043 -0.0197 0.7096
vn -0.0000 -0.6932 0.7207
vn 0.4618 0.8865 0.0301
vn -0.9805 0.0214 0.1955
vn 0.0056 -0.9738 0.2273
vn 0.9600 0.0305 -0.2785
vn 0.0401 0.0222 0.9990
vn 0.9389 -0.3089 0.1522
vn 0.9713 -0.1271 -0.2012
vn 0.9997 0.0248 -0.0000
vn 0.9943 0.0313 -0.1024
vn -0.0198 -0.9886 -0.1494
vn 0.9775 -0.0851 -0.1930
vn 0.1526 0.9832 0.1003
vn 0.5313 0.7386 0.4150
vn 0.0960 0.9810 0.1686
vn -0.9211 0.3252 0.2139
vn -0.1070 -0.9586 0.2638
vn -0.0000 -0.9911 0.1330
vn -0.0168 -0.9731 0.2297
vn -0.0953 -0.9813 0.1675
vn -0.1084 -0.9580 0.2655
vn 0.0016 -0.9914 0.1312
vn -0.0149 -0.9728 0.2311
vn -0.0970 -0.9813 0.1660
vn -0.1727 0.9224 -0.3455
vn -0.1870 -0.9466 -0.2627
vn -0.0084 0.9034 -0.4287
vn -0.0000 -0.5922 0.8058
vn -0.1623 -0.9130 0.3743
vn 0.0427 0.8926 -0.4489
vn 0.1467 0.9187 -0.3666
vn 0.0141 0.9734 0.2285
vn -0.0706 0.5269 0.8470
vn 0.4618 0.8865 -0.0301
vn -0.9833 -0.0358 -0.1782
vn 0.0056 -0.9738 -0.2273
vn 0.9435 -0.3197 -0.0867
vn 0.0489 0.0585 -0.9971
vn 0.9742 -0.1490 0.1697
vn 0.9713 -0.1271 0.2012
vn 0.9999 -0.0000 0.0121
vn 0.0549 0.2626 -0.9633
vn 0.0965 -0.6785 -0.7283
vn -0.0591 -0.0215 0.9980
vn 0.5313 0.7386 -0.4150
vn 0.2733 0.9409 -0.1998
vn 0.0566 0.9982 -0.0217
vn -0.1070 -0.9586 -0.2638
vn -0.0000 -0.9911 -0.1330
vn -0.0929 -0.9658 -0.2420
vn -0.0211 -0.9878 -0.1542
vn -0.1084 -0.9580 -0.2655
vn 0.0016 -0.9914 -0.1312
vn -0.0936 -0.9656 -0.2427
vn -0.0205 -0.9880 -0.1533
vt 0.875000 0.625000
vt 0.625000 0.750000
vt 0.625000 0.625000
vt 0.375000 0.750000
vt 0.625000 1.000000
vt 0.375000 1.000000
vt 0.375000 0.625000
vt 0.125000 0.750000
vt 0.125000 0.625000
vt 0.875000 0.750000
vt 0.625000 0.000000
vt 0.375000 0.125000
vt 0.375000 0.000000
vt 0.625000 0.125000
vt 0.625000 0.750000
vt 0.625000 0.750000
vt 0.375000 0.750000
vt 0.375000 0.750000
vt 0.405391 0.653475
vt 0.590340 0.720751
vt 0.408015 0.721511
vt 0.593040 0.654186
s 0
usemtl Material
f 7/1/1 33/2/1 6/3/1
f 42/4/2 3/5/2 4/6/2
f 8/7/3 4/8/3 5/9/3
f 8/7/4 41/4/4 42/4/4
f 3/10/5 12/1/5 9/10/5
f 9/11/6 11/12/6 10/13/6
f 4/8/7 11/9/7 5/9/7
f 3/5/8 10/6/8 4/6/8
f 5/9/9 12/14/9 6/3/9
f 13/2/10 23/3/10 15/3/10
f 6/3/11 16/7/11 8/7/11
f 33/2/1 25/3/1 6/3/1
f 41/4/12 36/2/12 43/4/12
f 35/2/13 43/4/13 36/2/13
f 1/15/14 19/15/14 26/16/14
f 33/2/15 44/4/15 35/2/15
f 14/17/16 18/18/16 2/4/16
f 24/19/17 28/20/17 22/21/17
f 41/4/18 32/7/18 30/4/18
f 34/2/19 30/4/19 29/2/19
f 25/3/20 32/7/20 16/7/20
f 13/2/1 25/3/1 34/2/1
f 23/3/21 29/2/21 31/3/21
f 21/2/1 34/2/1 29/2/1
f 15/3/1 31/3/1 25/3/1
f 22/21/22 29/2/22 30/4/22
f 27/22/23 29/2/23 28/20/23
f 22/21/24 32/7/24 24/19/24
f 27/22/25 32/7/25 31/3/25
f 37/2/26 34/2/26 33/2/26
f 40/2/27 35/2/27 36/2/27
f 38/2/1 36/2/1 34/2/1
f 39/2/1 33/2/1 35/2/1
f 1/15/28 38/2/28 37/2/28
f 17/2/29 40/2/29 19/15/29
f 26/16/30 40/2/30 38/2/30
f 17/2/31 37/2/31 39/2/31
f 46/17/32 41/4/32 45/4/32
f 47/4/33 44/4/33 48/4/33
f 47/4/34 41/4/34 43/4/34
f 46/17/35 44/4/35 42/4/35
f 2/4/36 45/4/36 14/17/36
f 20/4/37 48/4/37 18/18/37
f 20/4/38 45/4/38 47/4/38
f 2/4/39 48/4/39 46/17/39
f 74/2/1 7/1/1 6/3/1
f 83/4/40 51/5/40 74/2/40
f 52/8/41 8/7/41 5/9/41
f 82/4/42 8/7/42 83/4/42
f 51/10/43 56/1/43 7/1/43
f 55/12/6 53/11/6 54/13/6
f 55/9/44 52/8/44 5/9/44
f 54/6/45 51/5/45 52/6/45
f 6/3/46 56/14/46 5/9/46
f 65/3/47 57/2/47 15/3/47
f 25/3/1 74/2/1 6/3/1
f 82/4/48 77/2/48 75/2/48
f 76/2/49 84/4/49 85/4/49
f 61/15/50 49/15/50 67/16/50
f 74/2/51 85/4/51 83/4/51
f 60/18/52 58/17/52 50/4/52
f 66/19/53 69/20/53 68/22/53
f 82/4/18 73/7/18 16/7/18
f 75/2/54 71/4/54 82/4/54
f 73/7/55 25/3/55 16/7/55
f 57/2/1 25/3/1 15/3/1
f 65/3/1 70/2/1 63/2/1
f 63/2/1 75/2/1 57/2/1
f 15/3/56 72/3/56 65/3/56
f 64/21/57 70/2/57 69/20/57
f 70/2/58 68/22/58 69/20/58
f 73/7/59 64/21/59 66/19/59
f 68/22/60 73/7/60 66/19/60
f 78/2/1 75/2/1 79/2/1
f 81/2/1 76/2/1 80/2/1
f 79/2/61 77/2/61 81/2/61
f 80/2/62 74/2/62 78/2/62
f 49/15/63 79/2/63 67/16/63
f 81/2/64 59/2/64 61/15/64
f 67/16/65 81/2/65 61/15/65
f 59/2/66 78/2/66 49/15/66
f 82/4/67 87/17/67 86/4/67
f 85/4/68 88/4/68 89/4/68
f 88/4/69 82/4/69 86/4/69
f 87/17/70 85/4/70 89/4/70
f 86/4/71 50/4/71 58/17/71
f 89/4/72 62/4/72 60/18/72
f 62/4/73 86/4/73 58/17/73
f 50/4/74 89/4/74 60/18/74
f 7/1/75 3/10/75 33/2/75
f 42/4/76 33/2/76 3/5/76
f 8/7/77 42/4/77 4/8/77
f 8/7/78 16/7/78 41/4/78
f 3/10/79 7/1/79 12/1/79
f 9/11/6 12/14/6 11/12/6
f 4/8/80 10/8/80 11/9/80
f 3/5/81 9/5/81 10/6/81
f 6/3/11 8/7/11 5/9/11
f 5/9/82 11/9/82 12/14/82
f 12/14/83 7/1/83 6/3/83
f 13/2/84 21/2/84 23/3/84
f 6/3/11 25/3/11 16/7/11
f 33/2/85 34/2/85 25/3/85
f 41/4/86 34/2/86 36/2/86
f 35/2/87 44/4/87 43/4/87
f 1/15/88 17/2/88 19/15/88
f 33/2/89 42/4/89 44/4/89
f 14/17/90 20/4/90 18/18/90
f 24/19/91 27/22/91 28/20/91
f 41/4/18 16/7/18 32/7/18
f 34/2/92 41/4/92 30/4/92
f 25/3/20 31/3/20 32/7/20
f 13/2/1 15/3/1 25/3/1
f 23/3/1 21/2/1 29/2/1
f 21/2/1 13/2/1 34/2/1
f 15/3/56 23/3/56 31/3/56
f 22/21/93 28/20/93 29/2/93
f 27/22/94 31/3/94 29/2/94
f 22/21/95 30/4/95 32/7/95
f 27/22/96 24/19/96 32/7/96
f 37/2/1 38/2/1 34/2/1
f 40/2/1 39/2/1 35/2/1
f 38/2/97 40/2/97 36/2/97
f 39/2/98 37/2/98 33/2/98
f 1/15/99 26/16/99 38/2/99
f 17/2/100 39/2/100 40/2/100
f 26/16/101 19/15/101 40/2/101
f 17/2/102 1/15/102 37/2/102
f 46/17/103 42/4/103 41/4/103
f 47/4/104 43/4/104 44/4/104
f 47/4/105 45/4/105 41/4/105
f 46/17/106 48/4/106 44/4/106
f 2/4/107 46/17/107 45/4/107
f 20/4/108 47/4/108 48/4/108
f 20/4/109 14/17/109 45/4/109
f 2/4/110 18/18/110 48/4/110
f 74/2/111 51/10/111 7/1/111
f 83/4/11 52/6/11 51/5/11
f 52/8/112 83/4/112 8/7/112
f 82/4/78 16/7/78 8/7/78
f 51/10/5 53/10/5 56/1/5
f 55/12/6 56/14/6 53/11/6
f 55/9/80 54/8/80 52/8/80
f 54/6/113 53/5/113 51/5/113
f 6/3/114 7/1/114 56/14/114
f 56/14/115 55/9/115 5/9/115
f 65/3/116 63/2/116 57/2/116
f 25/3/117 75/2/117 74/2/117
f 82/4/118 84/4/118 77/2/118
f 76/2/119 77/2/119 84/4/119
f 61/15/120 59/2/120 49/15/120
f 74/2/121 76/2/121 85/4/121
f 60/18/122 62/4/122 58/17/122
f 66/19/123 64/21/123 69/20/123
f 82/4/18 71/4/18 73/7/18
f 75/2/124 70/2/124 71/4/124
f 73/7/55 72/3/55 25/3/55
f 57/2/1 75/2/1 25/3/1
f 65/3/21 72/3/21 70/2/21
f 63/2/1 70/2/1 75/2/1
f 15/3/1 25/3/1 72/3/1
f 64/21/125 71/4/125 70/2/125
f 70/2/126 72/3/126 68/22/126
f 73/7/95 71/4/95 64/21/95
f 68/22/127 72/3/127 73/7/127
f 78/2/128 74/2/128 75/2/128
f 81/2/129 77/2/129 76/2/129
f 79/2/1 75/2/1 77/2/1
f 80/2/1 76/2/1 74/2/1
f 49/15/130 78/2/130 79/2/130
f 81/2/131 80/2/131 59/2/131
f 67/16/132 79/2/132 81/2/132
f 59/2/133 80/2/133 78/2/133
f 82/4/134 83/4/134 87/17/134
f 85/4/135 84/4/135 88/4/135
f 88/4/136 84/4/136 82/4/136
f 87/17/137 83/4/137 85/4/137
f 86/4/138 87/17/138 50/4/138
f 89/4/139 88/4/139 62/4/139
f 62/4/140 88/4/140 86/4/140
f 50/4/141 87/17/141 89/4/141
